<svg width="99" height="99" viewBox="0 0 99 99" fill="none" xmlns="http://www.w3.org/2000/svg">
<circle cx="49.5" cy="49.5" r="49.5" fill="#171717" fill-opacity="0.85"/>
<line x1="30.6555" y1="66.581" x2="68.5574" y2="30.5431" stroke="white"/>
<path d="M37.0324 24.795C38.4384 24.795 39.6671 25.0673 40.7184 25.612C41.7824 26.144 42.5994 26.9167 43.1694 27.93C43.7521 28.9307 44.0434 30.1023 44.0434 31.445C44.0434 32.7877 43.7521 33.953 43.1694 34.941C42.5994 35.929 41.7824 36.689 40.7184 37.221C39.6671 37.7403 38.4384 38 37.0324 38H32.7194V24.795H37.0324ZM37.0324 36.233C38.5778 36.233 39.7621 35.815 40.5854 34.979C41.4088 34.143 41.8204 32.965 41.8204 31.445C41.8204 29.9123 41.4088 28.7153 40.5854 27.854C39.7621 26.9927 38.5778 26.562 37.0324 26.562H34.8854V36.233H37.0324Z" fill="white"/>
<path d="M65.9964 74L60.8854 68.091V74H58.7194V60.795H60.8854V66.818L66.0154 60.795H68.7324L62.9944 67.407L68.8274 74H65.9964Z" fill="white"/>
</svg>
